<svg xmlns="http://www.w3.org/2000/svg" viewBox="0 0 512 512">
  <defs>
    <linearGradient id="bgGrad" x1="0%" y1="0%" x2="100%" y2="100%">
      <stop offset="0%" style="stop-color:#4f46e5"/>
      <stop offset="100%" style="stop-color:#6366f1"/>
    </linearGradient>
    <linearGradient id="iconGrad" x1="0%" y1="0%" x2="100%" y2="100%">
      <stop offset="0%" style="stop-color:#22d3ee"/>
      <stop offset="100%" style="stop-color:#34d399"/>
    </linearGradient>
  </defs>
  
  <!-- 背景 -->
  <rect width="512" height="512" rx="100" fill="url(#bgGrad)"/>
  
  <!-- 聊天氣泡圖示 -->
  <g transform="translate(106, 96)">
    <!-- 主氣泡 -->
    <path d="M280 0H40C17.9 0 0 17.9 0 40v200c0 22.1 17.9 40 40 40h30l40 50 40-50h130c22.1 0 40-17.9 40-40V40c0-22.1-17.9-40-40-40z" 
          fill="white" opacity="0.95"/>
    
    <!-- AI 符號 -->
    <g transform="translate(70, 70)" fill="url(#iconGrad)">
      <!-- 左側圓點 -->
      <circle cx="30" cy="60" r="20"/>
      <!-- 右側圓點 -->
      <circle cx="130" cy="60" r="20"/>
      <!-- 連接線 -->
      <rect x="50" y="50" width="60" height="20" rx="10"/>
      <!-- 中央圓點 -->
      <circle cx="80" cy="100" r="15"/>
      <!-- 連接線 -->
      <rect x="25" y="70" width="20" height="35" rx="8" transform="rotate(-30, 35, 87)"/>
      <rect x="115" y="70" width="20" height="35" rx="8" transform="rotate(30, 125, 87)"/>
    </g>
  </g>
</svg>

